<?xml version="1.0" encoding="utf-8"?>
<!-- Generator: Adobe Illustrator 15.0.0, SVG Export Plug-In . SVG Version: 6.00 Build 0)  -->
<!DOCTYPE svg PUBLIC "-//W3C//DTD SVG 1.1//EN" "http://www.w3.org/Graphics/SVG/1.1/DTD/svg11.dtd">
<svg version="1.1" id="图层_1" xmlns="http://www.w3.org/2000/svg" xmlns:xlink="http://www.w3.org/1999/xlink" x="0px" y="0px"
	 width="60px" height="60px" viewBox="5 5 60 60" enable-background="new 5 5 60 60" xml:space="preserve">
<g>
	<polygon fill="#FFF100" points="11.936,8.537 15.739,8.601 12.807,11.025 13.92,14.661 10.71,12.621 7.596,14.804 8.543,11.122 
		5.504,8.833 9.3,8.597 10.537,5 	"/>
	<polygon fill="#FFF100" points="22.703,8.537 26.506,8.601 23.574,11.025 24.688,14.661 21.479,12.621 18.363,14.804 
		19.311,11.122 16.272,8.833 20.068,8.597 21.305,5 	"/>
	<polygon fill="#FFF100" points="33.094,8.537 36.897,8.601 33.965,11.025 35.079,14.661 31.87,12.621 28.754,14.804 29.702,11.122 
		26.664,8.833 30.459,8.597 31.697,5 	"/>
	<polygon fill="#FFF100" points="43.328,8.537 47.133,8.601 44.2,11.025 45.313,14.661 42.104,12.621 38.989,14.804 39.937,11.122 
		36.897,8.833 40.694,8.597 41.931,5 	"/>
	<polygon fill="#FFF100" points="53.563,8.537 57.366,8.601 54.436,11.025 55.548,14.661 52.34,12.621 49.225,14.804 50.172,11.122 
		47.133,8.833 50.928,8.597 52.166,5 	"/>
</g>
<g>
	<polygon fill="#FFF100" points="11.936,18.311 15.739,18.377 12.807,20.8 13.92,24.436 10.71,22.396 7.596,24.579 8.543,20.896 
		5.504,18.608 9.3,18.372 10.537,14.775 	"/>
	<polygon fill="#FFF100" points="22.703,18.311 26.506,18.377 23.574,20.8 24.688,24.436 21.479,22.396 18.363,24.579 
		19.311,20.896 16.272,18.608 20.068,18.372 21.305,14.775 	"/>
	<polygon fill="#FFF100" points="33.094,18.311 36.897,18.377 33.965,20.8 35.079,24.436 31.87,22.396 28.754,24.579 29.702,20.896 
		26.664,18.608 30.459,18.372 31.697,14.775 	"/>
	<polygon fill="#FFF100" points="43.328,18.311 47.133,18.377 44.2,20.8 45.313,24.436 42.102,22.396 38.989,24.579 39.935,20.896 
		36.897,18.608 40.694,18.372 41.931,14.775 	"/>
	
		<linearGradient id="SVGID_1_" gradientUnits="userSpaceOnUse" x1="309.793" y1="-334.6367" x2="320.0264" y2="-334.6367" gradientTransform="matrix(1 0 0 -1 -262.6602 -314.96)">
		<stop  offset="0" style="stop-color:#FFF100"/>
		<stop  offset="0.5" style="stop-color:#FFF100"/>
		<stop  offset="0.5" style="stop-color:#C9CACA"/>
		<stop  offset="1" style="stop-color:#C9CACA"/>
	</linearGradient>
	<polygon fill="url(#SVGID_1_)" points="53.563,18.311 57.366,18.377 54.434,20.8 55.548,24.436 52.337,22.396 49.225,24.579 
		50.17,20.896 47.133,18.608 50.928,18.372 52.166,14.775 	"/>
</g>
<g>
	<polygon fill="#FFF100" points="11.936,28.417 15.739,28.482 12.807,30.904 13.92,34.542 10.71,32.502 7.596,34.685 8.543,31.001 
		5.504,28.713 9.3,28.477 10.537,24.88 	"/>
	<polygon fill="#FFF100" points="22.703,28.417 26.506,28.482 23.574,30.904 24.688,34.542 21.479,32.502 18.363,34.685 
		19.311,31.001 16.272,28.713 20.068,28.477 21.305,24.88 	"/>
	<polygon fill="#FFF100" points="33.094,28.417 36.897,28.482 33.965,30.904 35.079,34.542 31.87,32.502 28.754,34.685 
		29.702,31.001 26.664,28.713 30.459,28.477 31.697,24.88 	"/>
	<polygon fill="#FFF100" points="43.328,28.417 47.133,28.482 44.2,30.904 45.313,34.542 42.104,32.502 38.989,34.685 
		39.937,31.001 36.897,28.713 40.694,28.477 41.931,24.88 	"/>
	<polygon fill="#C9CACA" points="53.563,28.417 57.366,28.482 54.436,30.904 55.548,34.542 52.34,32.502 49.225,34.685 
		50.172,31.001 47.133,28.713 50.928,28.477 52.166,24.88 	"/>
</g>
<g>
	<polygon fill="#FFF100" points="11.936,38.523 15.739,38.589 12.807,41.011 13.92,44.647 10.71,42.607 7.596,44.79 8.543,41.107 
		5.504,38.822 9.3,38.583 10.537,34.986 	"/>
	<polygon fill="#FFF100" points="22.703,38.523 26.506,38.589 23.574,41.011 24.688,44.647 21.479,42.607 18.363,44.79 
		19.311,41.107 16.272,38.822 20.068,38.583 21.305,34.986 	"/>
	<polygon fill="#FFF100" points="33.094,38.523 36.897,38.589 33.965,41.011 35.079,44.647 31.87,42.607 28.754,44.79 
		29.702,41.107 26.664,38.822 30.459,38.583 31.697,34.986 	"/>
	<polygon fill="#C9CACA" points="53.908,38.523 57.711,38.589 54.78,41.011 55.894,44.647 52.685,42.607 49.569,44.79 
		50.518,41.107 47.478,38.822 51.272,38.583 52.511,34.986 	"/>
	
		<linearGradient id="SVGID_2_" gradientUnits="userSpaceOnUse" x1="299.9033" y1="-354.8477" x2="310.1377" y2="-354.8477" gradientTransform="matrix(1 0 0 -1 -262.6602 -314.96)">
		<stop  offset="0" style="stop-color:#FFF100"/>
		<stop  offset="0.5" style="stop-color:#FFF100"/>
		<stop  offset="0.5" style="stop-color:#C9CACA"/>
		<stop  offset="1" style="stop-color:#C9CACA"/>
	</linearGradient>
	<polygon fill="url(#SVGID_2_)" points="43.673,38.523 47.478,38.589 44.545,41.011 45.658,44.647 42.447,42.607 39.335,44.79 
		40.28,41.107 37.243,38.822 41.039,38.583 42.275,34.986 	"/>
</g>
<g>
	<polygon fill="#FFF100" points="11.936,48.626 15.739,48.691 12.807,51.115 13.92,54.751 10.71,52.712 7.596,54.895 8.543,51.212 
		5.504,48.925 9.3,48.688 10.537,45.089 	"/>
	<polygon fill="#FFF100" points="22.703,48.626 26.506,48.691 23.574,51.115 24.688,54.751 21.479,52.712 18.363,54.895 
		19.311,51.212 16.272,48.925 20.068,48.688 21.305,45.089 	"/>
	<polygon fill="#FFF100" points="33.094,48.626 36.897,48.691 33.965,51.115 35.079,54.751 31.87,52.712 28.754,54.895 
		29.702,51.212 26.664,48.925 30.459,48.688 31.697,45.089 	"/>
	<polygon fill="#C9CACA" points="43.328,48.626 47.133,48.691 44.2,51.115 45.313,54.751 42.102,52.712 38.989,54.895 
		39.935,51.212 36.897,48.925 40.694,48.688 41.931,45.089 	"/>
	<polygon fill="#C9CACA" points="53.563,48.626 57.366,48.691 54.434,51.115 55.548,54.751 52.337,52.712 49.225,54.895 
		50.17,51.212 47.133,48.925 50.928,48.688 52.166,45.089 	"/>
</g>
<g>
	<polygon fill="#FFF100" points="11.936,58.731 15.739,58.797 12.807,61.22 13.92,64.856 10.71,62.817 7.596,65 8.543,61.317 
		5.504,59.03 9.3,58.791 10.537,55.194 	"/>
	<polygon fill="#FFF100" points="22.703,58.731 26.506,58.797 23.574,61.22 24.688,64.856 21.479,62.817 18.363,65 19.311,61.317 
		16.272,59.03 20.068,58.791 21.305,55.194 	"/>
	<polygon fill="#C9CACA" points="43.33,58.731 47.133,58.797 44.2,61.22 45.315,64.856 42.104,62.817 38.989,65 39.937,61.317 
		36.897,59.03 40.694,58.791 41.929,55.194 	"/>
	<polygon fill="#C9CACA" points="53.563,58.731 57.366,58.797 54.436,61.22 55.548,64.856 52.337,62.817 49.225,65 50.17,61.317 
		47.133,59.03 50.928,58.791 52.166,55.194 	"/>
	
		<linearGradient id="SVGID_3_" gradientUnits="userSpaceOnUse" x1="289.3242" y1="-375.0571" x2="299.5576" y2="-375.0571" gradientTransform="matrix(1 0 0 -1 -262.6602 -314.96)">
		<stop  offset="0" style="stop-color:#FFF100"/>
		<stop  offset="0.5" style="stop-color:#FFF100"/>
		<stop  offset="0.5" style="stop-color:#C9CACA"/>
		<stop  offset="1" style="stop-color:#C9CACA"/>
	</linearGradient>
	<polygon fill="url(#SVGID_3_)" points="33.094,58.731 36.897,58.797 33.965,61.22 35.079,64.856 31.87,62.817 28.755,65 
		29.702,61.317 26.664,59.03 30.459,58.791 31.697,55.194 	"/>
</g>
</svg>
