<?xml version="1.0" encoding="utf-8"?>
<!-- Generator: Adobe Illustrator 15.0.0, SVG Export Plug-In . SVG Version: 6.00 Build 0)  -->
<!DOCTYPE svg PUBLIC "-//W3C//DTD SVG 1.1//EN" "http://www.w3.org/Graphics/SVG/1.1/DTD/svg11.dtd">
<svg version="1.1" id="图层_1" xmlns="http://www.w3.org/2000/svg" xmlns:xlink="http://www.w3.org/1999/xlink" x="0px" y="0px"
	 width="113.386px" height="38.311px" viewBox="0 0 113.386 38.311" enable-background="new 0 0 113.386 38.311"
	 xml:space="preserve">
<polygon fill="#FFF100" points="16.965,10.275 19.61,17.634 27.426,17.876 21.245,22.666 23.431,30.174 16.965,25.775 10.5,30.174 
	12.685,22.666 6.503,17.876 14.32,17.634 "/>
<polygon fill="#FFF100" points="39.972,10.275 42.617,17.634 50.434,17.876 44.252,22.666 46.438,30.174 39.972,25.775 
	33.506,30.174 35.692,22.666 29.511,17.876 37.327,17.634 "/>
<polygon fill="#FFF100" points="60.895,10.275 63.541,17.634 71.357,17.876 65.175,22.666 67.362,30.174 60.895,25.775 
	54.43,30.174 56.616,22.666 50.434,17.876 58.25,17.634 "/>
<polygon fill="#FFF100" points="81.819,10.275 84.463,17.634 92.28,17.876 86.098,22.666 88.284,30.174 81.819,25.775 
	75.352,30.174 77.539,22.666 71.357,17.876 79.173,17.634 "/>
<polygon fill="#FFF100" points="102.27,10.275 104.915,17.634 112.731,17.876 106.549,22.666 108.735,30.174 102.27,25.775 
	95.803,30.174 97.989,22.666 91.808,17.876 99.625,17.634 "/>
</svg>
